<?xml version="1.0" standalone="no"?>
<!DOCTYPE svg PUBLIC "-//W3C//DTD SVG 20010904//EN"
 "http://www.w3.org/TR/2001/REC-SVG-20010904/DTD/svg10.dtd">
<svg version="1.0" xmlns="http://www.w3.org/2000/svg"
 width="148.000000pt" height="148.000000pt" viewBox="0 0 148.000000 148.000000"
 preserveAspectRatio="xMidYMid meet">
<metadata>
Created by potrace 1.14, written by Peter Selinger 2001-2017
</metadata>
<g transform="translate(0.000000,148.000000) scale(0.100000,-0.100000)"
fill="#000000" stroke="none">
<path d="M93 1455 c-17 -7 -46 -33 -62 -56 l-31 -42 0 -566 c1 -623 5 -699 41
-738 52 -55 28 -53 705 -53 l628 0 48 50 48 50 0 632 0 632 -22 32 c-13 18
-39 42 -59 53 -36 21 -50 21 -650 21 -501 -1 -620 -3 -646 -15z m751 -226
c101 -25 146 -102 146 -247 0 -97 -15 -145 -61 -190 l-37 -37 44 -38 c57 -50
68 -88 69 -232 0 -110 -2 -125 -26 -170 -18 -35 -39 -59 -74 -80 -48 -30 -48
-30 -227 -33 l-178 -4 0 521 0 521 151 0 c82 0 170 -5 193 -11z"/>
<path d="M665 1088 c-3 -8 -4 -72 -3 -144 l3 -129 53 2 c28 1 61 7 71 13 29
15 44 73 39 151 -5 89 -24 110 -102 117 -42 3 -57 1 -61 -10z"/>
<path d="M665 658 c-3 -8 -4 -81 -3 -163 l3 -150 67 0 c54 0 71 4 88 20 38 39
39 229 1 277 -15 18 -31 23 -85 26 -50 3 -67 1 -71 -10z"/>
</g>
</svg>
